<mxfile host="app.diagrams.net" agent="Mozilla/5.0 (Windows NT 10.0; Win64; x64) AppleWebKit/537.36 (KHTML, like Gecko) Chrome/134.0.0.0 Safari/537.36 Edg/134.0.0.0" version="26.1.1">
  <diagram name="Page-1" id="KB78nba-Hb2z6hXjGzMv">
    <mxGraphModel dx="378" dy="455" grid="1" gridSize="10" guides="1" tooltips="1" connect="1" arrows="1" fold="1" page="1" pageScale="1" pageWidth="827" pageHeight="1169" math="0" shadow="0">
      <root>
        <mxCell id="0" />
        <mxCell id="1" parent="0" />
        <mxCell id="m1CjezaMIKNChpOTWR7g-56" value="" style="group" parent="1" vertex="1" connectable="0">
          <mxGeometry x="10" y="10" width="420" height="375" as="geometry" />
        </mxCell>
        <mxCell id="m1CjezaMIKNChpOTWR7g-25" value="DATABASE" style="text;html=1;align=center;verticalAlign=middle;whiteSpace=wrap;rounded=0;fontFamily=Courier New;" parent="m1CjezaMIKNChpOTWR7g-56" vertex="1">
          <mxGeometry x="10" y="-5" width="80" height="30" as="geometry" />
        </mxCell>
        <mxCell id="m1CjezaMIKNChpOTWR7g-21" value="" style="endArrow=none;html=1;rounded=0;exitX=1;exitY=0.5;exitDx=0;exitDy=0;" parent="m1CjezaMIKNChpOTWR7g-56" source="m1CjezaMIKNChpOTWR7g-25" edge="1">
          <mxGeometry width="50" height="50" relative="1" as="geometry">
            <mxPoint x="90" y="12" as="sourcePoint" />
            <mxPoint x="400" y="10" as="targetPoint" />
          </mxGeometry>
        </mxCell>
        <mxCell id="m1CjezaMIKNChpOTWR7g-2" value="&lt;div&gt;&lt;font face=&quot;Courier New&quot; style=&quot;font-size: 10px;&quot;&gt;&amp;lt;&amp;lt;dataType&amp;gt;&amp;gt;&lt;/font&gt;&lt;/div&gt;&lt;div&gt;&lt;font face=&quot;Courier New&quot; size=&quot;1&quot;&gt;TrendStruct&lt;/font&gt;&lt;/div&gt;&lt;div&gt;&lt;font face=&quot;Courier New&quot; size=&quot;1&quot;&gt;{class}&lt;/font&gt;&lt;/div&gt;" style="rounded=0;whiteSpace=wrap;html=1;fillColor=#e1d5e7;strokeColor=#9673a6;" parent="m1CjezaMIKNChpOTWR7g-56" vertex="1">
          <mxGeometry x="10" y="132" width="120" height="60" as="geometry" />
        </mxCell>
        <mxCell id="m1CjezaMIKNChpOTWR7g-83" style="edgeStyle=orthogonalEdgeStyle;rounded=0;orthogonalLoop=1;jettySize=auto;html=1;exitX=0.5;exitY=1;exitDx=0;exitDy=0;entryX=0.5;entryY=0;entryDx=0;entryDy=0;" parent="m1CjezaMIKNChpOTWR7g-56" source="m1CjezaMIKNChpOTWR7g-4" target="m1CjezaMIKNChpOTWR7g-2" edge="1">
          <mxGeometry relative="1" as="geometry" />
        </mxCell>
        <mxCell id="m1CjezaMIKNChpOTWR7g-84" style="edgeStyle=orthogonalEdgeStyle;rounded=0;orthogonalLoop=1;jettySize=auto;html=1;exitX=0.5;exitY=1;exitDx=0;exitDy=0;entryX=0.5;entryY=0;entryDx=0;entryDy=0;" parent="m1CjezaMIKNChpOTWR7g-56" source="m1CjezaMIKNChpOTWR7g-4" target="m1CjezaMIKNChpOTWR7g-7" edge="1">
          <mxGeometry relative="1" as="geometry" />
        </mxCell>
        <mxCell id="m1CjezaMIKNChpOTWR7g-4" value="&lt;div&gt;&lt;font face=&quot;Courier New&quot; style=&quot;font-size: 10px;&quot;&gt;&amp;lt;&amp;lt;dataType&amp;gt;&amp;gt;&lt;/font&gt;&lt;/div&gt;&lt;div&gt;&lt;font face=&quot;Courier New&quot; size=&quot;1&quot;&gt;DataStruct&lt;/font&gt;&lt;/div&gt;&lt;div&gt;&lt;font face=&quot;Courier New&quot; size=&quot;1&quot;&gt;{class}&lt;/font&gt;&lt;/div&gt;" style="rounded=0;whiteSpace=wrap;html=1;fillColor=#e1d5e7;strokeColor=#9673a6;" parent="m1CjezaMIKNChpOTWR7g-56" vertex="1">
          <mxGeometry x="140" y="22" width="120" height="60" as="geometry" />
        </mxCell>
        <mxCell id="m1CjezaMIKNChpOTWR7g-9" style="edgeStyle=orthogonalEdgeStyle;rounded=0;orthogonalLoop=1;jettySize=auto;html=1;exitX=0.5;exitY=1;exitDx=0;exitDy=0;entryX=0.5;entryY=0;entryDx=0;entryDy=0;" parent="m1CjezaMIKNChpOTWR7g-56" source="m1CjezaMIKNChpOTWR7g-4" target="m1CjezaMIKNChpOTWR7g-6" edge="1">
          <mxGeometry relative="1" as="geometry" />
        </mxCell>
        <mxCell id="m1CjezaMIKNChpOTWR7g-85" value="&lt;font face=&quot;Courier New&quot;&gt;INHERITED BY&lt;/font&gt;" style="edgeLabel;html=1;align=center;verticalAlign=middle;resizable=0;points=[];" parent="m1CjezaMIKNChpOTWR7g-9" vertex="1" connectable="0">
          <mxGeometry x="-0.0567" relative="1" as="geometry">
            <mxPoint as="offset" />
          </mxGeometry>
        </mxCell>
        <mxCell id="m1CjezaMIKNChpOTWR7g-6" value="&lt;div&gt;&lt;font face=&quot;Courier New&quot; style=&quot;font-size: 10px;&quot;&gt;&amp;lt;&amp;lt;dataType&amp;gt;&amp;gt;&lt;/font&gt;&lt;/div&gt;&lt;div&gt;&lt;font face=&quot;Courier New&quot; size=&quot;1&quot;&gt;EntityStruct&lt;/font&gt;&lt;/div&gt;&lt;div&gt;&lt;font face=&quot;Courier New&quot; size=&quot;1&quot;&gt;{class}&lt;/font&gt;&lt;/div&gt;" style="rounded=0;whiteSpace=wrap;html=1;fillColor=#e1d5e7;strokeColor=#9673a6;" parent="m1CjezaMIKNChpOTWR7g-56" vertex="1">
          <mxGeometry x="140" y="132" width="120" height="60" as="geometry" />
        </mxCell>
        <mxCell id="m1CjezaMIKNChpOTWR7g-7" value="&lt;div&gt;&lt;font face=&quot;Courier New&quot; style=&quot;font-size: 10px;&quot;&gt;&amp;lt;&amp;lt;dataType&amp;gt;&amp;gt;&lt;/font&gt;&lt;/div&gt;&lt;div&gt;&lt;span style=&quot;font-family: &amp;quot;Courier New&amp;quot;; font-size: x-small; background-color: transparent; color: light-dark(rgb(0, 0, 0), rgb(255, 255, 255));&quot;&gt;ArticleStruct&lt;/span&gt;&lt;/div&gt;&lt;div&gt;&lt;span style=&quot;font-family: &amp;quot;Courier New&amp;quot;; font-size: x-small; background-color: transparent; color: light-dark(rgb(0, 0, 0), rgb(255, 255, 255));&quot;&gt;{class}&lt;/span&gt;&lt;/div&gt;" style="rounded=0;whiteSpace=wrap;html=1;fillColor=#e1d5e7;strokeColor=#9673a6;" parent="m1CjezaMIKNChpOTWR7g-56" vertex="1">
          <mxGeometry x="270" y="132" width="120" height="60" as="geometry" />
        </mxCell>
        <mxCell id="m1CjezaMIKNChpOTWR7g-22" value="" style="endArrow=none;html=1;rounded=0;" parent="m1CjezaMIKNChpOTWR7g-56" edge="1">
          <mxGeometry width="50" height="50" relative="1" as="geometry">
            <mxPoint y="200" as="sourcePoint" />
            <mxPoint y="10" as="targetPoint" />
          </mxGeometry>
        </mxCell>
        <mxCell id="m1CjezaMIKNChpOTWR7g-23" value="" style="endArrow=none;html=1;rounded=0;" parent="m1CjezaMIKNChpOTWR7g-56" edge="1">
          <mxGeometry width="50" height="50" relative="1" as="geometry">
            <mxPoint x="400" y="200" as="sourcePoint" />
            <mxPoint x="400" y="10" as="targetPoint" />
          </mxGeometry>
        </mxCell>
        <mxCell id="m1CjezaMIKNChpOTWR7g-24" value="" style="endArrow=none;html=1;rounded=0;" parent="m1CjezaMIKNChpOTWR7g-56" edge="1">
          <mxGeometry width="50" height="50" relative="1" as="geometry">
            <mxPoint y="200" as="sourcePoint" />
            <mxPoint x="400" y="200" as="targetPoint" />
          </mxGeometry>
        </mxCell>
        <mxCell id="m1CjezaMIKNChpOTWR7g-55" value="" style="endArrow=none;html=1;rounded=0;entryX=0;entryY=0.5;entryDx=0;entryDy=0;" parent="m1CjezaMIKNChpOTWR7g-56" target="m1CjezaMIKNChpOTWR7g-25" edge="1">
          <mxGeometry width="50" height="50" relative="1" as="geometry">
            <mxPoint y="10" as="sourcePoint" />
            <mxPoint x="10" y="12" as="targetPoint" />
          </mxGeometry>
        </mxCell>
        <mxCell id="m1CjezaMIKNChpOTWR7g-58" value="API" style="text;html=1;align=center;verticalAlign=middle;whiteSpace=wrap;rounded=0;fontFamily=Courier New;" parent="m1CjezaMIKNChpOTWR7g-56" vertex="1">
          <mxGeometry x="10" y="205" width="40" height="30" as="geometry" />
        </mxCell>
        <mxCell id="m1CjezaMIKNChpOTWR7g-62" value="&lt;div&gt;&lt;font face=&quot;Courier New&quot; style=&quot;font-size: 10px;&quot;&gt;&amp;lt;&amp;lt;dataType&amp;gt;&amp;gt;&lt;/font&gt;&lt;/div&gt;&lt;div&gt;&lt;font size=&quot;1&quot; face=&quot;Courier New&quot;&gt;pydantic.BaseModel&lt;/font&gt;&lt;/div&gt;&lt;div&gt;&lt;font face=&quot;Courier New&quot; size=&quot;1&quot;&gt;{class}&lt;/font&gt;&lt;/div&gt;" style="rounded=0;whiteSpace=wrap;html=1;fillColor=#e1d5e7;strokeColor=#9673a6;" parent="m1CjezaMIKNChpOTWR7g-56" vertex="1">
          <mxGeometry x="270" y="231" width="120" height="60" as="geometry" />
        </mxCell>
        <mxCell id="m1CjezaMIKNChpOTWR7g-71" value="&lt;div&gt;&lt;font face=&quot;Courier New&quot; style=&quot;font-size: 10px;&quot;&gt;&amp;lt;&amp;lt;dataType&amp;gt;&amp;gt;&lt;/font&gt;&lt;/div&gt;&lt;div&gt;&lt;font size=&quot;1&quot; face=&quot;Courier New&quot;&gt;TrendData&lt;/font&gt;&lt;/div&gt;&lt;div&gt;&lt;span style=&quot;font-family: &amp;quot;Courier New&amp;quot;; font-size: x-small; background-color: transparent; color: light-dark(rgb(0, 0, 0), rgb(255, 255, 255));&quot;&gt;{class}&lt;/span&gt;&lt;/div&gt;" style="rounded=0;whiteSpace=wrap;html=1;fillColor=#e1d5e7;strokeColor=#9673a6;" parent="1" vertex="1">
          <mxGeometry x="410" y="351" width="120" height="60" as="geometry" />
        </mxCell>
        <mxCell id="m1CjezaMIKNChpOTWR7g-59" value="" style="endArrow=none;html=1;rounded=0;exitX=1;exitY=0.5;exitDx=0;exitDy=0;" parent="1" edge="1">
          <mxGeometry width="50" height="50" relative="1" as="geometry">
            <mxPoint x="60" y="229.9999999999999" as="sourcePoint" />
            <mxPoint x="670" y="231" as="targetPoint" />
          </mxGeometry>
        </mxCell>
        <mxCell id="m1CjezaMIKNChpOTWR7g-60" value="&lt;div&gt;&lt;font face=&quot;Courier New&quot; style=&quot;font-size: 10px;&quot;&gt;&amp;lt;&amp;lt;dataType&amp;gt;&amp;gt;&lt;/font&gt;&lt;/div&gt;&lt;div&gt;&lt;font size=&quot;1&quot; face=&quot;Courier New&quot;&gt;PostBody&lt;/font&gt;&lt;/div&gt;&lt;div&gt;&lt;font face=&quot;Courier New&quot; size=&quot;1&quot;&gt;{class}&lt;/font&gt;&lt;/div&gt;" style="rounded=0;whiteSpace=wrap;html=1;fillColor=#e1d5e7;strokeColor=#9673a6;" parent="1" vertex="1">
          <mxGeometry x="20" y="351" width="120" height="60" as="geometry" />
        </mxCell>
        <mxCell id="m1CjezaMIKNChpOTWR7g-86" style="edgeStyle=orthogonalEdgeStyle;rounded=0;orthogonalLoop=1;jettySize=auto;html=1;exitX=0.5;exitY=1;exitDx=0;exitDy=0;entryX=0.5;entryY=0;entryDx=0;entryDy=0;" parent="1" source="m1CjezaMIKNChpOTWR7g-62" target="m1CjezaMIKNChpOTWR7g-60" edge="1">
          <mxGeometry relative="1" as="geometry" />
        </mxCell>
        <mxCell id="m1CjezaMIKNChpOTWR7g-91" style="edgeStyle=orthogonalEdgeStyle;rounded=0;orthogonalLoop=1;jettySize=auto;html=1;exitX=0.5;exitY=1;exitDx=0;exitDy=0;entryX=0.5;entryY=0;entryDx=0;entryDy=0;" parent="1" source="m1CjezaMIKNChpOTWR7g-62" target="m1CjezaMIKNChpOTWR7g-64" edge="1">
          <mxGeometry relative="1" as="geometry" />
        </mxCell>
        <mxCell id="m1CjezaMIKNChpOTWR7g-92" style="edgeStyle=orthogonalEdgeStyle;rounded=0;orthogonalLoop=1;jettySize=auto;html=1;exitX=0.5;exitY=1;exitDx=0;exitDy=0;entryX=0.5;entryY=0;entryDx=0;entryDy=0;" parent="1" source="m1CjezaMIKNChpOTWR7g-62" target="m1CjezaMIKNChpOTWR7g-65" edge="1">
          <mxGeometry relative="1" as="geometry" />
        </mxCell>
        <mxCell id="m1CjezaMIKNChpOTWR7g-93" style="edgeStyle=orthogonalEdgeStyle;rounded=0;orthogonalLoop=1;jettySize=auto;html=1;exitX=0.5;exitY=1;exitDx=0;exitDy=0;entryX=0.5;entryY=0;entryDx=0;entryDy=0;" parent="1" source="m1CjezaMIKNChpOTWR7g-62" target="m1CjezaMIKNChpOTWR7g-71" edge="1">
          <mxGeometry relative="1" as="geometry" />
        </mxCell>
        <mxCell id="m1CjezaMIKNChpOTWR7g-64" value="&lt;div&gt;&lt;font face=&quot;Courier New&quot; style=&quot;font-size: 10px;&quot;&gt;&amp;lt;&amp;lt;dataType&amp;gt;&amp;gt;&lt;/font&gt;&lt;/div&gt;&lt;div&gt;&lt;font size=&quot;1&quot; face=&quot;Courier New&quot;&gt;EntityData&lt;/font&gt;&lt;/div&gt;&lt;div&gt;&lt;font face=&quot;Courier New&quot; size=&quot;1&quot;&gt;{class}&lt;/font&gt;&lt;/div&gt;" style="rounded=0;whiteSpace=wrap;html=1;fillColor=#e1d5e7;strokeColor=#9673a6;" parent="1" vertex="1">
          <mxGeometry x="150" y="351" width="120" height="60" as="geometry" />
        </mxCell>
        <mxCell id="m1CjezaMIKNChpOTWR7g-65" value="&lt;div&gt;&lt;font face=&quot;Courier New&quot; style=&quot;font-size: 10px;&quot;&gt;&amp;lt;&amp;lt;dataType&amp;gt;&amp;gt;&lt;/font&gt;&lt;/div&gt;&lt;div&gt;&lt;font size=&quot;1&quot; face=&quot;Courier New&quot;&gt;ArticleData&lt;/font&gt;&lt;/div&gt;&lt;div&gt;&lt;span style=&quot;font-family: &amp;quot;Courier New&amp;quot;; font-size: x-small; background-color: transparent; color: light-dark(rgb(0, 0, 0), rgb(255, 255, 255));&quot;&gt;{class}&lt;/span&gt;&lt;/div&gt;" style="rounded=0;whiteSpace=wrap;html=1;fillColor=#e1d5e7;strokeColor=#9673a6;" parent="1" vertex="1">
          <mxGeometry x="280" y="351" width="120" height="60" as="geometry" />
        </mxCell>
        <mxCell id="m1CjezaMIKNChpOTWR7g-69" value="" style="endArrow=none;html=1;rounded=0;movable=1;resizable=1;rotatable=1;deletable=1;editable=1;locked=0;connectable=1;" parent="1" edge="1">
          <mxGeometry width="50" height="50" relative="1" as="geometry">
            <mxPoint x="10" y="421" as="sourcePoint" />
            <mxPoint x="670" y="420" as="targetPoint" />
          </mxGeometry>
        </mxCell>
        <mxCell id="m1CjezaMIKNChpOTWR7g-70" value="" style="endArrow=none;html=1;rounded=0;entryX=0;entryY=0.5;entryDx=0;entryDy=0;" parent="1" edge="1">
          <mxGeometry width="50" height="50" relative="1" as="geometry">
            <mxPoint x="10" y="230" as="sourcePoint" />
            <mxPoint x="20" y="229.9999999999999" as="targetPoint" />
          </mxGeometry>
        </mxCell>
        <mxCell id="m1CjezaMIKNChpOTWR7g-96" value="" style="endArrow=none;html=1;rounded=0;" parent="1" edge="1">
          <mxGeometry width="50" height="50" relative="1" as="geometry">
            <mxPoint x="10" y="421" as="sourcePoint" />
            <mxPoint x="10" y="231" as="targetPoint" />
          </mxGeometry>
        </mxCell>
        <mxCell id="m1CjezaMIKNChpOTWR7g-97" value="" style="endArrow=none;html=1;rounded=0;" parent="1" edge="1">
          <mxGeometry width="50" height="50" relative="1" as="geometry">
            <mxPoint x="670" y="420" as="sourcePoint" />
            <mxPoint x="670" y="231" as="targetPoint" />
            <Array as="points">
              <mxPoint x="670" y="320" />
            </Array>
          </mxGeometry>
        </mxCell>
        <mxCell id="m1CjezaMIKNChpOTWR7g-124" value="" style="group" parent="1" vertex="1" connectable="0">
          <mxGeometry x="430" y="5" width="360" height="205" as="geometry" />
        </mxCell>
        <mxCell id="m1CjezaMIKNChpOTWR7g-105" value="AI" style="text;html=1;align=center;verticalAlign=middle;whiteSpace=wrap;rounded=0;fontFamily=Courier New;" parent="m1CjezaMIKNChpOTWR7g-124" vertex="1">
          <mxGeometry x="10" width="30" height="30" as="geometry" />
        </mxCell>
        <mxCell id="m1CjezaMIKNChpOTWR7g-106" value="" style="endArrow=none;html=1;rounded=0;exitX=1;exitY=0.5;exitDx=0;exitDy=0;" parent="m1CjezaMIKNChpOTWR7g-124" source="m1CjezaMIKNChpOTWR7g-105" edge="1">
          <mxGeometry width="50" height="50" relative="1" as="geometry">
            <mxPoint x="50" y="15" as="sourcePoint" />
            <mxPoint x="360" y="15" as="targetPoint" />
          </mxGeometry>
        </mxCell>
        <mxCell id="m1CjezaMIKNChpOTWR7g-107" value="&lt;div&gt;&lt;font face=&quot;Courier New&quot; style=&quot;font-size: 10px;&quot;&gt;&amp;lt;&amp;lt;dataType&amp;gt;&amp;gt;&lt;/font&gt;&lt;/div&gt;&lt;div&gt;&lt;font size=&quot;1&quot; face=&quot;Courier New&quot;&gt;GetTrendEntities&lt;/font&gt;&lt;/div&gt;&lt;div&gt;&lt;font face=&quot;Courier New&quot; size=&quot;1&quot;&gt;{class}&lt;/font&gt;&lt;/div&gt;" style="rounded=0;whiteSpace=wrap;html=1;fillColor=#fff2cc;strokeColor=#d6b656;" parent="m1CjezaMIKNChpOTWR7g-124" vertex="1">
          <mxGeometry x="10" y="137" width="120" height="60" as="geometry" />
        </mxCell>
        <mxCell id="m1CjezaMIKNChpOTWR7g-108" style="edgeStyle=orthogonalEdgeStyle;rounded=0;orthogonalLoop=1;jettySize=auto;html=1;exitX=0.5;exitY=1;exitDx=0;exitDy=0;entryX=0.5;entryY=0;entryDx=0;entryDy=0;" parent="m1CjezaMIKNChpOTWR7g-124" source="m1CjezaMIKNChpOTWR7g-110" target="m1CjezaMIKNChpOTWR7g-107" edge="1">
          <mxGeometry relative="1" as="geometry" />
        </mxCell>
        <mxCell id="m1CjezaMIKNChpOTWR7g-109" style="edgeStyle=orthogonalEdgeStyle;rounded=0;orthogonalLoop=1;jettySize=auto;html=1;exitX=0.5;exitY=1;exitDx=0;exitDy=0;entryX=0.5;entryY=0;entryDx=0;entryDy=0;" parent="m1CjezaMIKNChpOTWR7g-124" source="m1CjezaMIKNChpOTWR7g-110" target="m1CjezaMIKNChpOTWR7g-114" edge="1">
          <mxGeometry relative="1" as="geometry" />
        </mxCell>
        <mxCell id="m1CjezaMIKNChpOTWR7g-110" value="&lt;div&gt;&lt;font face=&quot;Courier New&quot; style=&quot;font-size: 10px;&quot;&gt;&amp;lt;&amp;lt;entity&amp;gt;&amp;gt;&lt;/font&gt;&lt;/div&gt;&lt;div&gt;&lt;font size=&quot;1&quot; face=&quot;Courier New&quot;&gt;AiFunction&lt;/font&gt;&lt;/div&gt;&lt;div&gt;&lt;font face=&quot;Courier New&quot; size=&quot;1&quot;&gt;{class}&lt;/font&gt;&lt;/div&gt;" style="rounded=0;whiteSpace=wrap;html=1;fillColor=#fff2cc;strokeColor=#d6b656;" parent="m1CjezaMIKNChpOTWR7g-124" vertex="1">
          <mxGeometry x="80" y="25" width="120" height="60" as="geometry" />
        </mxCell>
        <mxCell id="m1CjezaMIKNChpOTWR7g-114" value="&lt;div&gt;&lt;font face=&quot;Courier New&quot; style=&quot;font-size: 10px;&quot;&gt;&amp;lt;&amp;lt;dataType&amp;gt;&amp;gt;&lt;/font&gt;&lt;/div&gt;&lt;div&gt;&lt;font size=&quot;1&quot; face=&quot;Courier New&quot;&gt;GetTrendEntities&lt;/font&gt;&lt;/div&gt;&lt;div&gt;&lt;span style=&quot;font-family: &amp;quot;Courier New&amp;quot;; font-size: x-small; background-color: transparent; color: light-dark(rgb(0, 0, 0), rgb(255, 255, 255));&quot;&gt;{class}&lt;/span&gt;&lt;/div&gt;" style="rounded=0;whiteSpace=wrap;html=1;fillColor=#fff2cc;strokeColor=#d6b656;" parent="m1CjezaMIKNChpOTWR7g-124" vertex="1">
          <mxGeometry x="150" y="137" width="120" height="60" as="geometry" />
        </mxCell>
        <mxCell id="m1CjezaMIKNChpOTWR7g-115" value="" style="endArrow=none;html=1;rounded=0;" parent="m1CjezaMIKNChpOTWR7g-124" edge="1">
          <mxGeometry width="50" height="50" relative="1" as="geometry">
            <mxPoint y="205" as="sourcePoint" />
            <mxPoint y="15" as="targetPoint" />
          </mxGeometry>
        </mxCell>
        <mxCell id="m1CjezaMIKNChpOTWR7g-116" value="" style="endArrow=none;html=1;rounded=0;" parent="m1CjezaMIKNChpOTWR7g-124" edge="1">
          <mxGeometry width="50" height="50" relative="1" as="geometry">
            <mxPoint x="360" y="205" as="sourcePoint" />
            <mxPoint x="360" y="15" as="targetPoint" />
            <Array as="points">
              <mxPoint x="360" y="125" />
            </Array>
          </mxGeometry>
        </mxCell>
        <mxCell id="m1CjezaMIKNChpOTWR7g-117" value="" style="endArrow=none;html=1;rounded=0;" parent="m1CjezaMIKNChpOTWR7g-124" edge="1">
          <mxGeometry width="50" height="50" relative="1" as="geometry">
            <mxPoint y="205" as="sourcePoint" />
            <mxPoint x="360" y="205" as="targetPoint" />
          </mxGeometry>
        </mxCell>
        <mxCell id="m1CjezaMIKNChpOTWR7g-118" value="" style="endArrow=none;html=1;rounded=0;entryX=0;entryY=0.5;entryDx=0;entryDy=0;" parent="m1CjezaMIKNChpOTWR7g-124" target="m1CjezaMIKNChpOTWR7g-105" edge="1">
          <mxGeometry width="50" height="50" relative="1" as="geometry">
            <mxPoint y="15" as="sourcePoint" />
            <mxPoint x="10" y="17" as="targetPoint" />
          </mxGeometry>
        </mxCell>
        <mxCell id="m1CjezaMIKNChpOTWR7g-122" value="&lt;font face=&quot;Courier New&quot;&gt;INHERITED BY&lt;/font&gt;" style="edgeLabel;html=1;align=center;verticalAlign=middle;resizable=0;points=[];" parent="m1CjezaMIKNChpOTWR7g-124" vertex="1" connectable="0">
          <mxGeometry x="140.00168946055123" y="110.99796745483968" as="geometry" />
        </mxCell>
        <mxCell id="m1CjezaMIKNChpOTWR7g-123" value="&lt;div&gt;&lt;font face=&quot;Courier New&quot; style=&quot;font-size: 10px;&quot;&gt;&amp;lt;&amp;lt;entity&amp;gt;&amp;gt;&lt;/font&gt;&lt;/div&gt;&lt;div&gt;&lt;font size=&quot;1&quot; face=&quot;Courier New&quot;&gt;AiRequest&lt;/font&gt;&lt;/div&gt;&lt;div&gt;&lt;font face=&quot;Courier New&quot; size=&quot;1&quot;&gt;{class}&lt;/font&gt;&lt;/div&gt;" style="rounded=0;whiteSpace=wrap;html=1;fillColor=#fff2cc;strokeColor=#d6b656;" parent="m1CjezaMIKNChpOTWR7g-124" vertex="1">
          <mxGeometry x="230" y="25" width="120" height="60" as="geometry" />
        </mxCell>
        <mxCell id="lXGh-ZLCWr-93TRn4ImD-1" value="&lt;div&gt;&lt;font face=&quot;Courier New&quot; style=&quot;font-size: 10px;&quot;&gt;&amp;lt;&amp;lt;dataType&amp;gt;&amp;gt;&lt;/font&gt;&lt;/div&gt;&lt;div&gt;&lt;font size=&quot;1&quot; face=&quot;Courier New&quot;&gt;APIResponse&lt;/font&gt;&lt;/div&gt;&lt;div&gt;&lt;span style=&quot;font-family: &amp;quot;Courier New&amp;quot;; font-size: x-small; background-color: transparent; color: light-dark(rgb(0, 0, 0), rgb(255, 255, 255));&quot;&gt;{class}&lt;/span&gt;&lt;/div&gt;" style="rounded=0;whiteSpace=wrap;html=1;fillColor=#e1d5e7;strokeColor=#9673a6;" vertex="1" parent="1">
          <mxGeometry x="540" y="351" width="120" height="60" as="geometry" />
        </mxCell>
        <mxCell id="lXGh-ZLCWr-93TRn4ImD-2" style="edgeStyle=orthogonalEdgeStyle;rounded=0;orthogonalLoop=1;jettySize=auto;html=1;exitX=0.5;exitY=1;exitDx=0;exitDy=0;entryX=0.5;entryY=0;entryDx=0;entryDy=0;" edge="1" parent="1" source="m1CjezaMIKNChpOTWR7g-62" target="lXGh-ZLCWr-93TRn4ImD-1">
          <mxGeometry relative="1" as="geometry" />
        </mxCell>
        <mxCell id="lXGh-ZLCWr-93TRn4ImD-3" value="&lt;font face=&quot;Courier New&quot;&gt;INHERITED BY&lt;/font&gt;" style="edgeLabel;html=1;align=center;verticalAlign=middle;resizable=0;points=[];" vertex="1" connectable="0" parent="1">
          <mxGeometry x="342" y="325.18181818181824" as="geometry" />
        </mxCell>
      </root>
    </mxGraphModel>
  </diagram>
</mxfile>
